<?xml version="1.0" encoding="iso-8859-1"?>
<!-- Uploaded to: SVG Repo, www.svgrepo.com, Generator: SVG Repo Mixer Tools -->
<svg version="1.1" id="Layer_1" xmlns="http://www.w3.org/2000/svg" xmlns:xlink="http://www.w3.org/1999/xlink" 
	 viewBox="0 0 512.001 512.001" xml:space="preserve">
<path style="fill:#2BA5B1;" d="M229.73,504.402c112.712,0,204.084-91.37,204.084-204.082H25.648
	C25.648,413.033,117.019,504.402,229.73,504.402z"/>
<g>
	<path style="fill:#53180F;" d="M349.137,278.023c1.899-6.25,4.05-13.334,4.05-26.718c0-13.383-2.151-20.466-4.05-26.716
		c-1.821-5.995-3.394-11.173-3.394-22.297c0-11.127,1.573-16.305,3.394-22.301c1.899-6.251,4.05-13.336,4.05-26.721
		c0-13.384-2.151-20.468-4.05-26.719c-1.821-5.996-3.394-11.174-3.394-22.301h-15.205c0,13.385,2.151,20.469,4.05,26.72
		c1.821,5.996,3.394,11.174,3.394,22.3c0,11.126-1.573,16.306-3.394,22.303c-1.899,6.25-4.05,13.335-4.05,26.719
		c0,13.383,2.151,20.466,4.05,26.716c1.821,5.995,3.394,11.174,3.394,22.297c0,11.126-1.573,16.304-3.394,22.299
		c-1.501,4.944-3.157,10.423-3.785,19.113h-16.797c0.54-6.271,1.749-10.263,3.095-14.695c1.899-6.25,4.05-13.334,4.05-26.718
		c0-13.383-2.151-20.466-4.05-26.716c-1.821-5.995-3.394-11.173-3.394-22.297c0-11.127,1.573-16.305,3.394-22.301
		c1.899-6.251,4.05-13.336,4.05-26.721c0-13.384-2.151-20.468-4.05-26.719c-1.821-5.996-3.394-11.174-3.394-22.301h-15.205
		c0,13.385,2.151,20.469,4.05,26.72c1.821,5.996,3.394,11.174,3.394,22.3c0,11.126-1.573,16.306-3.394,22.303
		c-1.899,6.25-4.05,13.335-4.05,26.719c0,13.383,2.151,20.466,4.05,26.716c1.821,5.995,3.394,11.174,3.394,22.297
		c0,11.126-1.573,16.304-3.394,22.299c-1.501,4.944-3.157,10.423-3.785,19.113h-16.797c0.54-6.271,1.749-10.263,3.095-14.695
		c1.899-6.25,4.05-13.334,4.05-26.718c0-13.383-2.151-20.466-4.05-26.716c-1.821-5.995-3.394-11.173-3.394-22.297
		c0-11.127,1.573-16.305,3.394-22.301c1.899-6.251,4.05-13.336,4.05-26.721c0-13.384-2.151-20.468-4.05-26.719
		c-1.821-5.996-3.394-11.174-3.394-22.301h-15.205c0,13.385,2.151,20.469,4.05,26.72c1.821,5.996,3.394,11.174,3.394,22.3
		c0,11.126-1.573,16.306-3.394,22.303c-1.899,6.25-4.05,13.335-4.05,26.719c0,13.383,2.151,20.466,4.05,26.716
		c1.821,5.995,3.394,11.174,3.394,22.297c0,11.126-1.573,16.304-3.394,22.299c-1.501,4.944-3.157,10.423-3.785,19.113h-16.797
		c0.539-6.271,1.748-10.263,3.094-14.695c1.898-6.25,4.049-13.334,4.049-26.718c0-13.382-2.151-20.466-4.049-26.716
		c-1.821-5.995-3.393-11.172-3.393-22.297c0-11.127,1.572-16.305,3.393-22.302c1.898-6.25,4.049-13.335,4.049-26.72
		c0-13.384-2.151-20.468-4.049-26.719c-1.821-5.997-3.393-11.175-3.393-22.302h-15.205c0,13.384,2.151,20.469,4.049,26.719
		c1.821,5.997,3.393,11.175,3.393,22.301s-1.572,16.306-3.393,22.303c-1.898,6.25-4.049,13.335-4.049,26.719
		c0,13.382,2.151,20.466,4.049,26.716c1.821,5.995,3.393,11.172,3.393,22.297c0,11.126-1.572,16.304-3.393,22.3
		c-1.501,4.943-3.157,10.422-3.784,19.112h-16.798c0.539-6.271,1.748-10.263,3.094-14.695c1.898-6.25,4.05-13.334,4.05-26.718
		c0-13.382-2.152-20.466-4.05-26.716c-1.821-5.995-3.394-11.172-3.394-22.297c0-11.127,1.572-16.305,3.394-22.302
		c1.899-6.25,4.05-13.335,4.05-26.72c0-13.384-2.151-20.468-4.05-26.719c-1.821-5.997-3.394-11.175-3.394-22.302h-15.205
		c0,13.384,2.151,20.469,4.05,26.72c1.821,5.996,3.394,11.174,3.394,22.3s-1.572,16.306-3.394,22.303
		c-1.898,6.25-4.05,13.335-4.05,26.719c0,13.383,2.151,20.466,4.05,26.716c1.821,5.995,3.394,11.174,3.394,22.297
		c0,11.126-1.572,16.304-3.394,22.299c-1.501,4.944-3.157,10.423-3.785,19.113h-16.797c0.539-6.271,1.748-10.263,3.094-14.695
		c1.898-6.25,4.05-13.334,4.05-26.718c0-13.383-2.152-20.466-4.05-26.716c-1.821-5.995-3.394-11.173-3.394-22.297
		c0-11.127,1.572-16.305,3.394-22.301c1.898-6.251,4.05-13.336,4.05-26.721c0-13.384-2.152-20.468-4.05-26.719
		c-1.821-5.996-3.394-11.174-3.394-22.301h-15.205c0,13.385,2.152,20.469,4.05,26.72c1.821,5.996,3.394,11.174,3.394,22.3
		s-1.572,16.306-3.394,22.303c-1.899,6.25-4.05,13.335-4.05,26.719c0,13.383,2.152,20.466,4.05,26.716
		c1.821,5.995,3.394,11.174,3.394,22.297c0,11.126-1.572,16.304-3.394,22.299c-1.501,4.944-3.157,10.423-3.785,19.113h-16.797
		c0.539-6.271,1.748-10.263,3.094-14.695c1.898-6.25,4.05-13.334,4.05-26.718c0-13.383-2.152-20.466-4.05-26.716
		c-1.821-5.995-3.394-11.173-3.394-22.297c0-11.126,1.572-16.305,3.394-22.301c1.898-6.251,4.05-13.336,4.05-26.721
		c0-13.384-2.152-20.468-4.05-26.719c-1.821-5.997-3.394-11.176-3.394-22.303h-15.205c0,13.385,2.152,20.47,4.05,26.721
		c1.821,5.996,3.394,11.174,3.394,22.3c0,11.126-1.572,16.306-3.394,22.302c-1.898,6.251-4.05,13.336-4.05,26.72
		c0,13.383,2.152,20.466,4.05,26.716c1.821,5.995,3.394,11.174,3.394,22.297c0,11.126-1.572,16.304-3.394,22.299
		c-1.501,4.944-3.157,10.423-3.785,19.113H121.78c0.539-6.271,1.748-10.263,3.094-14.695c1.899-6.25,4.05-13.334,4.05-26.718
		c0-13.382-2.151-20.466-4.05-26.716c-1.821-5.995-3.394-11.172-3.394-22.297c0-11.127,1.572-16.305,3.394-22.302
		c1.898-6.25,4.05-13.335,4.05-26.72c0-13.384-2.151-20.468-4.05-26.719c-1.821-5.997-3.394-11.175-3.394-22.302h-15.205
		c0,13.384,2.152,20.469,4.05,26.72c1.821,5.996,3.394,11.174,3.394,22.3s-1.572,16.306-3.394,22.303
		c-1.899,6.25-4.05,13.335-4.05,26.719c0,13.383,2.152,20.466,4.05,26.716c1.821,5.995,3.394,11.174,3.394,22.297
		c0,11.126-1.572,16.304-3.394,22.299c-1.501,4.944-3.157,10.423-3.785,19.113H18.045v7.603
		c0,116.723,94.961,211.685,211.685,211.685s211.686-94.962,211.686-211.685v-7.603h-95.373
		C346.583,286.446,347.791,282.454,349.137,278.023z M424.887,323.131H101.67v15.205h320.837
		C404.749,428.543,325.067,496.8,229.731,496.8c-95.335,0-175.018-68.256-192.775-158.463h44.438v-15.205H34.573
		c-0.582-5.016-0.981-10.086-1.178-15.208h392.67C425.869,313.045,425.47,318.114,424.887,323.131z"/>
	<rect x="209.989" y="71.832" style="fill:#53180F;" width="283.967" height="15.205"/>
	
		<rect x="343.317" y="-117.099" transform="matrix(-0.1221 -0.9925 0.9925 -0.1221 369.0724 376.2143)" style="fill:#53180F;" width="15.205" height="283.962"/>
</g>
</svg>