<?xml version="1.0" encoding="utf-8"?>
<!-- Uploaded to: SVG Repo, www.svgrepo.com, Generator: SVG Repo Mixer Tools -->
<svg width="800px" height="800px" viewBox="0 0 1024 1024" class="icon"  version="1.1" xmlns="http://www.w3.org/2000/svg"><path d="M330.115987 299.629801s-6.046043-45.345833 42.323324-63.484985h287.19369s30.231238 21.161662 27.207705 63.484985H330.115987z" fill="#FFFFFF" /><path d="M696.851233 310.384693H320.699314l-1.244021-9.330667c-2.483946-18.620379 4.610556-58.254979 49.206905-74.979122l1.827635-0.682932h292.534276l2.772682 1.943334c1.438559 1.008527 35.186843 25.210104 31.769114 73.062409l-0.714672 9.986978z m-356.024382-21.507735h335.293775c-1.659718-23.146976-14.80743-37.119939-20.279072-41.976227H374.454317c-26.23399 10.579807-32.393684 30.292671-33.627466 41.976227z" fill="#4D5152" /><path d="M227.331211 299.629801h565.317804v54.41541h-565.317804z" fill="#FFFFFF" /><path d="M803.399811 364.801126H216.577343v-75.924168h586.823492v75.924168z m-565.314733-21.507735h543.806998v-32.907674H238.085078v32.907674z" fill="#4D5152" /><path d="M261.395876 354.045211h497.187451v42.157454H261.395876z" fill="#FFFFFF" /><path d="M769.337194 406.956533H250.640984v-63.663142h518.69621v63.663142z m-497.188475-21.507735H747.828435v-20.646648H272.148719v20.646648z" fill="#4D5152" /><path d="M261.395876 396.202665h497.187451v450.020126H261.395876z" fill="#67DDE0" /><path d="M769.337194 856.97973H250.640984V385.448798h518.69621v471.530932z m-497.188475-21.507735H747.828435V406.956533H272.148719v428.515462z" fill="#4D5152" /><path d="M261.708161 846.223815h496.556737v71.863439H261.708161z" fill="#FFFFFF" /><path d="M769.337194 928.840098H250.640984v-93.368103h518.69621v93.368103z m-496.557761-21.507735h474.418289v-50.351609H272.779433v50.351609z" fill="#4D5152" /><path d="M333.006415 510.122194v263.607468" fill="#67DDE0" /><path d="M322.253572 510.123218h21.507735v263.606444h-21.507735z" fill="#4D5152" /><path d="M380.079543 510.122194v263.607468" fill="#67DDE0" /><path d="M369.324652 510.123218h21.507735v263.606444h-21.507735z" fill="#4D5152" /><path d="M535.671205 106.152335v129.992481h48.369366v-84.646648h151.154143V106.152335z" fill="#FFFFFF" /><path d="M594.792391 246.899707h-69.875054V95.397443h221.031245v66.855617h-151.156191v84.646647z m-48.367319-21.507735h26.85856v-84.646647h151.156191V116.906203H546.425072v108.485769z" fill="#4D5152" /></svg>