<?xml version="1.0" encoding="iso-8859-1"?>
<!-- Uploaded to: SVG Repo, www.svgrepo.com, Generator: SVG Repo Mixer Tools -->
<svg height="800px" width="800px" version="1.1" id="Layer_1" xmlns="http://www.w3.org/2000/svg" xmlns:xlink="http://www.w3.org/1999/xlink" 
	 viewBox="0 0 512 512" xml:space="preserve">
<path style="fill:#5A8EE8;" d="M467.561,473.186H45.607c-20.028,0-36.264-16.236-36.264-36.264V245.847
	c0-20.028,16.236-36.264,36.264-36.264h421.956c20.028,0,36.264,16.236,36.264,36.264v191.075
	C503.825,456.95,487.589,473.186,467.561,473.186z"/>
<path style="fill:#4A80CE;" d="M467.561,209.583h-38.927c20.028,0,36.264,16.236,36.264,36.264v191.075
	c0,20.028-16.236,36.264-36.264,36.264h38.927c20.028,0,36.264-16.236,36.264-36.264V245.847
	C503.825,225.819,487.589,209.583,467.561,209.583z"/>
<path style="fill:#74B7FB;" d="M416.64,418.923H96.528c-13.254,0-23.999-10.745-23.999-23.999V287.845
	c0-13.254,10.745-23.999,23.999-23.999H416.64c13.254,0,23.999,10.745,23.999,23.999v107.079
	C440.638,408.178,429.894,418.923,416.64,418.923z"/>
<g>
	<path style="fill:#E6E7E8;" d="M373.143,207.535c5.641,13.373,17.287,22.38,30.478,25.207c8.275,1.774,17.158,1.115,25.547-2.423
		c21.762-9.179,31.963-34.263,22.784-56.025c-8.345-19.785-29.835-30.014-50.025-24.813c-2.018,0.52-4.023,1.194-6,2.028
		C374.164,160.69,363.963,185.773,373.143,207.535z"/>
	<path style="fill:#E6E7E8;" d="M298.568,130.469c3.753,8.899,11.135,15.159,19.698,17.788c6.785,2.083,14.313,1.885,21.364-1.09
		c15.95-6.728,23.426-25.112,16.699-41.062c-6.473-15.347-23.739-22.85-39.244-17.4c-0.608,0.214-1.215,0.447-1.817,0.702
		C299.316,96.135,291.84,114.519,298.568,130.469z"/>
	<path style="fill:#E6E7E8;" d="M407.716,67.735c1.942,4.604,5.356,8.137,9.463,10.285c5.281,2.761,11.709,3.229,17.627,0.732
		c10.523-4.439,15.455-16.567,11.017-27.09c-4.439-10.523-16.567-15.455-27.09-11.017c-0.657,0.278-1.294,0.585-1.907,0.92
		C407.63,46.593,403.555,57.869,407.716,67.735z"/>
</g>
<g>
	<path style="fill:#D1D3D4;" d="M451.952,174.295c-8.345-19.785-29.834-30.009-50.023-24.808
		c13.19,2.827,24.841,11.824,30.481,25.197c9.179,21.762-1.022,46.846-22.784,56.025c-1.977,0.834-3.983,1.504-6.001,2.024
		c8.275,1.774,17.155,1.126,25.545-2.413C450.93,221.141,461.131,196.057,451.952,174.295z"/>
	<path style="fill:#D1D3D4;" d="M356.328,106.106c-6.473-15.347-23.737-22.842-39.242-17.395
		c8.562,2.629,15.945,8.886,19.699,17.785c6.728,15.95-0.749,34.334-16.699,41.062c-0.603,0.255-1.211,0.482-1.819,0.696
		c6.785,2.083,14.312,1.89,21.363-1.085C355.579,140.44,363.056,122.056,356.328,106.106z"/>
	<path style="fill:#D1D3D4;" d="M445.823,51.661c-4.439-10.523-16.567-15.455-27.09-11.017c-0.729,0.307-1.424,0.66-2.097,1.037
		c4.187,2.137,7.675,5.699,9.645,10.369c4.131,9.794,0.138,20.972-8.92,26.053c5.247,2.679,11.593,3.117,17.446,0.648
		C445.329,74.313,450.261,62.184,445.823,51.661z"/>
</g>
<g>
	<path style="fill:#4A80CE;" d="M153.341,335.946c-4.466-2.122-10.028-3.819-17.005-5.185l-0.415-0.033
		c-6.107-1.144-11.273-2.956-14.191-4.978c-1.276-0.884-2.256-1.812-2.756-2.612c-0.355-0.568-0.576-1.175-0.576-2.438
		c0-2.194,1.299-4.268,3.858-6.165c3.211-2.379,7.739-3.743,12.422-3.743c6.736,0,12.31,3.35,18.381,7.399
		c1.794,1.195,3.932,1.606,6.025,1.154c2.079-0.448,3.842-1.685,4.92-3.415c2.455-3.528,1.503-8.452-2.169-11.007l-0.308-0.199
		c-6.324-4.094-14.984-9.7-26.849-9.7c-8.098,0-15.847,2.381-21.838,6.715c-6.563,4.851-10.327,11.761-10.327,18.958
		c0,3.884,1.048,7.614,3.034,10.789c2.603,4.143,6.612,7.517,11.913,10.027c4.235,2.007,9.444,3.585,15.928,4.827l0.406,0.03
		c6.681,1.26,12.386,3.211,15.66,5.356c1.417,0.945,2.394,1.914,3.075,3.049c0.615,1.025,0.833,1.796,0.833,2.945
		c0,2.639-1.498,5.077-4.453,7.243c-3.561,2.611-8.661,4.11-14.015,4.11c-8.014,0.084-16.745-4.703-21.826-8.861
		c-1.641-1.342-3.717-1.975-5.841-1.77c-2.138,0.202-4.056,1.217-5.399,2.858l-0.03,0.039c-2.66,3.442-2.104,8.468,1.262,11.222
		c7.077,5.586,18.345,12.273,31.859,12.398c8.697,0,16.964-2.555,23.262-7.182c7.033-5.064,11.066-12.373,11.066-20.055
		c0-3.936-1.119-7.894-3.148-11.142C163.449,342.319,159.282,338.844,153.341,335.946z"/>
	<path style="fill:#4A80CE;" d="M223.636,295.025c-11.649,0-22.852,4.893-30.729,13.415c-7.981,8.496-12.377,19.723-12.377,31.613
		c0,12.018,4.399,23.249,12.375,31.612c8.001,8.526,19.201,13.415,30.729,13.415c11.165,0,22.389-5.023,29.998-13.405
		c8.142-8.537,12.625-19.766,12.625-31.622c0-11.718-4.475-22.938-12.602-31.598C246.13,300.045,234.91,295.025,223.636,295.025z
		 M241.348,359.773c-4.873,5.224-11.164,8.1-17.712,8.1c-6.958,0-13.249-2.8-18.221-8.128c-4.878-4.994-7.676-12.171-7.676-19.692
		c0-7.48,2.803-14.707,7.703-19.841c4.871-5.22,11.162-7.979,18.193-7.979c6.62,0,12.911,2.834,17.712,7.977
		c4.895,5.254,7.704,12.486,7.704,19.842C249.051,347.453,246.248,354.635,241.348,359.773z"/>
	<path style="fill:#4A80CE;" d="M319.624,302.846c-1.347-3.292-4.559-5.433-7.99-5.297c-3.395-0.134-6.666,2.049-8.012,5.344
		l-26.582,70.849c-1.533,4.446,0.663,9.219,5.068,10.888c0.921,0.307,1.823,0.451,2.839,0.451c3.466,0,6.556-2.079,7.89-5.34
		l5.463-14.494h26.787l5.455,14.475c1.167,3.206,4.292,5.36,7.778,5.36c0.642,0,1.879-0.063,2.906-0.474
		c4.337-1.645,6.535-6.418,4.985-10.909L319.624,302.846z M318.837,348.519h-14.41l7.204-19.124L318.837,348.519z"/>
	<path style="fill:#4A80CE;" d="M389.17,297.431h-21.518c-4.612,0-8.363,3.752-8.363,8.363v70.924c0,4.611,3.751,8.363,8.363,8.363
		c4.678,0,8.484-3.752,8.484-8.363v-24.335h13.034c15.217,0,27.597-12.273,27.597-27.356
		C416.767,309.809,404.387,297.431,389.17,297.431z M389.17,335.536h-13.034v-21.259h13.034c5.924,0,10.646,4.735,10.751,10.719
		C399.815,330.906,395.092,335.536,389.17,335.536z"/>
</g>
<path d="M466.978,200.728h-4.441c1.979-9.991,0.948-20.341-3.098-29.933c-11.044-26.178-41.322-38.49-67.5-27.451
	c-26.178,11.042-38.491,41.322-27.45,67.5c5.349,12.681,15.316,22.52,28.065,27.705c6.27,2.551,12.844,3.823,19.415,3.823
	c6.79,0,13.576-1.361,20.02-4.078c9.879-4.167,18.021-11.146,23.593-20.049h11.397c15.166,0,27.506,12.339,27.506,27.506v191.075
	c0,15.166-12.339,27.507-27.506,27.507H45.023c-15.166,0-27.506-12.339-27.506-27.507V245.752c0-15.166,12.339-27.506,27.506-27.506
	H326.87c4.837,0,8.759-3.922,8.759-8.759c0-4.837-3.922-8.759-8.759-8.759H45.023C20.197,200.728,0,220.926,0,245.752v191.075
	c0,24.827,20.197,45.024,45.023,45.024h421.954c24.825,0,45.023-20.197,45.023-45.024V245.752
	C512,220.926,491.803,200.728,466.978,200.728z M425.18,222.154c-8.369,3.53-17.613,3.591-26.028,0.168
	c-8.414-3.422-14.992-9.916-18.523-18.286c-7.288-17.278,0.84-37.264,18.118-44.551c4.303-1.815,8.77-2.674,13.171-2.674
	c13.271,0,25.908,7.816,31.38,20.792c3.53,8.37,3.59,17.613,0.168,26.028C440.044,212.046,433.551,218.625,425.18,222.154z"/>
<path d="M416.056,427.586c18.063,0,32.757-14.695,32.757-32.757V287.749c0-18.063-14.695-32.757-32.757-32.757H95.944
	c-18.063,0-32.757,14.695-32.757,32.757v107.079c0,18.063,14.695,32.757,32.757,32.757h271.458c4.837,0,8.759-3.92,8.759-8.759
	c0-4.838-3.922-8.759-8.759-8.759H95.944c-8.404,0-15.24-6.836-15.24-15.24V287.749c0-8.402,6.836-15.24,15.24-15.24h320.111
	c8.404,0,15.24,6.836,15.24,15.24v107.079c0,8.402-6.836,15.24-15.24,15.24c-4.837,0-8.759,3.92-8.759,8.759
	C407.297,423.666,411.219,427.586,416.056,427.586z"/>
<path d="M289.913,133.779c4.163,9.869,11.921,17.528,21.843,21.563c4.88,1.985,9.997,2.977,15.11,2.977
	c5.284,0,10.566-1.059,15.581-3.174c9.87-4.163,17.528-11.921,21.564-21.843c4.036-9.923,3.966-20.823-0.197-30.693
	c-8.594-20.374-32.159-29.962-52.537-21.365C290.904,89.836,281.32,113.404,289.913,133.779L289.913,133.779z M318.085,97.382
	c5.559-2.346,11.697-2.385,17.286-0.112c5.588,2.273,9.957,6.585,12.302,12.144c2.344,5.559,2.385,11.697,0.111,17.286
	c-2.273,5.588-6.585,9.957-12.144,12.302c-5.558,2.344-11.697,2.385-17.285,0.111c-5.589-2.273-9.958-6.585-12.303-12.144l0,0
	C301.214,115.495,306.611,102.222,318.085,97.382z"/>
<path d="M415.096,86.872c3.583,1.457,7.339,2.185,11.093,2.185c3.878,0,7.757-0.778,11.438-2.33
	c7.245-3.056,12.866-8.75,15.829-16.034c2.962-7.284,2.91-15.286-0.146-22.531s-8.75-12.866-16.034-15.829
	c-7.284-2.963-15.284-2.91-22.531,0.146c-7.245,3.056-12.866,8.75-15.829,16.034c-2.962,7.284-2.91,15.286,0.146,22.531
	C402.118,78.289,407.812,83.91,415.096,86.872z M421.554,48.62c1.508-0.636,3.074-0.938,4.616-0.938
	c4.651,0,9.081,2.74,10.999,7.288c2.555,6.056-0.294,13.062-6.351,15.616c-6.054,2.556-13.061-0.294-15.616-6.351
	C412.648,58.18,415.497,51.174,421.554,48.62z"/>
<path d="M148.326,364.871c-3.561,2.611-8.661,4.11-14.015,4.11c-8.014,0.084-16.745-4.703-21.826-8.861
	c-1.641-1.342-3.717-1.975-5.841-1.77c-2.138,0.202-4.056,1.217-5.399,2.858l-0.03,0.039c-2.66,3.442-2.104,8.468,1.262,11.222
	c7.077,5.586,18.345,12.273,31.859,12.398c8.697,0,16.964-2.555,23.262-7.182c7.033-5.064,11.066-12.373,11.066-20.055
	c0-3.936-1.119-7.894-3.148-11.142c-2.65-4.261-6.817-7.738-12.757-10.634c-4.466-2.122-10.028-3.819-17.005-5.185l-0.415-0.033
	c-6.107-1.145-11.273-2.956-14.191-4.978c-1.276-0.884-2.256-1.812-2.756-2.612c-0.355-0.568-0.576-1.175-0.576-2.438
	c0-2.194,1.299-4.268,3.858-6.165c3.211-2.379,7.739-3.743,12.422-3.743c6.736,0,12.31,3.35,18.381,7.399
	c1.794,1.195,3.932,1.606,6.025,1.154c2.079-0.448,3.842-1.685,4.92-3.415c2.455-3.528,1.503-8.451-2.169-11.007l-0.308-0.199
	c-6.324-4.094-14.984-9.7-26.849-9.7c-8.098,0-15.847,2.381-21.838,6.715c-6.563,4.851-10.327,11.761-10.327,18.958
	c0,3.884,1.048,7.614,3.034,10.789c2.603,4.143,6.612,7.517,11.913,10.027c4.235,2.007,9.444,3.585,15.928,4.827l0.406,0.03
	c6.681,1.26,12.386,3.211,15.66,5.356c1.417,0.945,2.394,1.914,3.075,3.049c0.615,1.025,0.833,1.796,0.833,2.945
	C152.778,360.267,151.28,362.704,148.326,364.871z"/>
<path d="M223.052,294.93c-11.649,0-22.852,4.893-30.729,13.415c-7.981,8.496-12.377,19.723-12.377,31.613
	c0,12.018,4.399,23.249,12.375,31.612c8.001,8.526,19.201,13.415,30.729,13.415c11.165,0,22.389-5.023,29.998-13.405
	c8.142-8.537,12.625-19.766,12.625-31.622c0-11.718-4.475-22.938-12.602-31.598C245.546,299.951,234.326,294.93,223.052,294.93z
	 M240.764,359.679c-4.873,5.224-11.164,8.1-17.712,8.1c-6.958,0-13.249-2.8-18.221-8.128c-4.878-4.994-7.676-12.171-7.676-19.692
	c0-7.48,2.803-14.707,7.703-19.841c4.871-5.22,11.162-7.979,18.193-7.979c6.62,0,12.911,2.834,17.712,7.977
	c4.895,5.254,7.704,12.486,7.704,19.842C248.467,347.357,245.664,354.54,240.764,359.679z"/>
<path d="M311.05,297.454c-3.395-0.134-6.666,2.049-8.012,5.344l-26.582,70.849c-1.533,4.446,0.663,9.219,5.068,10.888
	c0.921,0.307,1.823,0.451,2.839,0.451c3.466,0,6.556-2.079,7.89-5.34l5.463-14.494h26.787l5.455,14.475
	c1.167,3.206,4.292,5.36,7.778,5.36c0.642,0,1.879-0.063,2.906-0.474c4.337-1.645,6.535-6.418,4.985-10.909l-26.585-70.851
	C317.694,299.459,314.481,297.318,311.05,297.454z M303.844,348.423l7.204-19.124l7.205,19.124H303.844z"/>
<path d="M388.586,297.335h-21.518c-4.612,0-8.363,3.752-8.363,8.363v70.924c0,4.611,3.751,8.363,8.363,8.363
	c4.678,0,8.484-3.752,8.484-8.363v-24.335h13.034c15.217,0,27.597-12.273,27.597-27.356
	C416.183,309.715,403.803,297.335,388.586,297.335z M388.586,335.441h-13.034v-21.259h13.034c5.924,0,10.646,4.735,10.751,10.719
	C399.231,330.81,394.508,335.441,388.586,335.441z"/>
</svg>